<mxfile host="app.diagrams.net" modified="2024-04-03T01:59:09.072Z" agent="Mozilla/5.0 (Windows NT 10.0; Win64; x64) AppleWebKit/537.36 (KHTML, like Gecko) Chrome/123.0.0.0 Safari/537.36 Edg/123.0.0.0" version="24.2.1" etag="o8j5HJYe2rQjXkFdJILB" type="github">
  <diagram name="第 1 页" id="8xAbPD0yXP_sl5N1FIUQ">
    <mxGraphModel>
      <root>
        <mxCell id="0" />
        <mxCell id="1" parent="0" />
      </root>
    </mxGraphModel>
  </diagram>
</mxfile>
